<?xml version="1.0" encoding="utf-8"?>
<!-- Generator: Adobe Illustrator 25.2.1, SVG Export Plug-In . SVG Version: 6.00 Build 0)  -->
<svg version="1.1" id="bc2ceed9-6279-4fc4-8d2c-808d9baa6e6c"
	 xmlns="http://www.w3.org/2000/svg" xmlns:xlink="http://www.w3.org/1999/xlink" x="0px" y="0px" viewBox="0 0 920 728.8"
	 style="enable-background:new 0 0 920 728.8;" xml:space="preserve">
<ellipse style="fill:#F2F2F2;" cx="453" cy="707" rx="352" ry="18"/>
<path style="fill:#E6E6E6;" d="M639.8,171.3H636V65c0-33.9-27.5-61.5-61.5-61.5l0,0H349.4c-33.9,0-61.5,27.5-61.5,61.5v582.8
	c0,33.9,27.5,61.5,61.5,61.5h225.1c33.9,0,61.5-27.5,61.5-61.5V246.9h3.9L639.8,171.3z"/>
<path style="fill:#FFFFFF;" d="M622.9,65.5v581.9c0,25.4-20.6,45.9-45.9,45.9H350.8c-25.4,0-45.9-20.6-45.9-45.9V65.5
	c0-25.4,20.6-45.9,45.9-45.9h27.4c-4.6,11.2,0.8,23.9,12,28.4c2.6,1.1,5.4,1.6,8.2,1.6h129c12,0,21.8-9.8,21.8-21.8
	c0-2.8-0.6-5.6-1.6-8.2H577C602.3,19.5,622.9,40.1,622.9,65.5z"/>
<path style="fill:#E6E6E6;" d="M362.9,73.5c-17.2,0-31,13.9-31,31s13.9,31,31,31l0,0c17.2,0,31-13.9,31-31S380,73.5,362.9,73.5z"/>
<path style="fill:#E6E6E6;" d="M588.2,130.7H425.3c-4.3,0-7.8-3.5-7.8-7.8c0-4.3,3.5-7.8,7.8-7.8h162.9c4.3,0,7.8,3.5,7.8,7.8
	C595.9,127.2,592.4,130.7,588.2,130.7z"/>
<path style="fill:#E6E6E6;" d="M476.6,97.8h-51.4c-4.3,0-7.8-3.5-7.8-7.8c0-4.3,3.5-7.8,7.8-7.8h51.4c4.3,0,7.8,3.5,7.8,7.8
	C484.4,94.3,480.9,97.8,476.6,97.8z"/>
<path style="fill:#E6E6E6;" d="M362.9,203.5c-17.2,0-31,13.9-31,31s13.9,31,31,31l0,0c17.2,0,31-13.9,31-31S380,203.5,362.9,203.5z"
	/>
<path style="fill:#E6E6E6;" d="M588.2,260.7H425.3c-4.3,0-7.8-3.5-7.8-7.8s3.5-7.8,7.8-7.8h162.9c4.3,0,7.8,3.5,7.8,7.8
	S592.4,260.7,588.2,260.7z"/>
<path style="fill:#E6E6E6;" d="M476.6,227.7h-51.4c-4.3,0-7.8-3.5-7.8-7.8s3.5-7.8,7.8-7.8h51.4c4.3,0,7.8,3.5,7.8,7.8
	S480.9,227.7,476.6,227.7z"/>
<path style="fill:#E6E6E6;" d="M362.9,463.3c-17.1,1.1-30.1,15.9-29,33c1,15.6,13.4,28,29,29.1l0,0c17.2,0,31-13.9,31-31
	S380,463.3,362.9,463.3z"/>
<path style="fill:#E6E6E6;" d="M588.2,520.5H425.3c-4.3,0-7.8-3.5-7.8-7.8c0-4.3,3.5-7.8,7.8-7.8h162.9c4.3,0,7.8,3.5,7.8,7.8
	C595.9,517,592.4,520.5,588.2,520.5z"/>
<path style="fill:#E6E6E6;" d="M476.6,487.6h-51.4c-4.3,0-7.8-3.5-7.8-7.8c0-4.3,3.5-7.8,7.8-7.8h51.4c4.3,0,7.8,3.5,7.8,7.8
	C484.4,484.1,480.9,487.6,476.6,487.6z"/>
<path style="fill:#E6E6E6;" d="M362.9,593.3c-17.2,0-31,13.9-31,31s13.9,31,31,31l0,0c17.2,0,31-13.9,31-31S380,593.3,362.9,593.3z"
	/>
<path style="fill:#E6E6E6;" d="M588.2,650.5H425.3c-4.3,0-7.8-3.5-7.8-7.8s3.5-7.8,7.8-7.8h162.9c4.3,0,7.8,3.5,7.8,7.8
	S592.4,650.5,588.2,650.5z"/>
<path style="fill:#E6E6E6;" d="M476.6,617.5h-51.4c-4.3,0-7.8-3.5-7.8-7.8s3.5-7.8,7.8-7.8h51.4c4.3,0,7.8,3.5,7.8,7.8
	S480.9,617.5,476.6,617.5z"/>
<path style="fill:#FFFFFF;" d="M651,439.1H276.7c-8.8,0-16-7.2-16-16V302.8c0-8.8,7.2-16,16-16H651c8.8,0,16,7.2,16,16v120.2
	C667,431.9,659.8,439.1,651,439.1z"/>
<path style="fill:#202328;" d="M322.7,407.3c-24.5,0-44.3-19.9-44.3-44.3c0-24.5,19.9-44.3,44.3-44.3c24.5,0,44.3,19.9,44.3,44.3
	l0,0C367,387.4,347.2,407.3,322.7,407.3z M322.7,320.6c-23.4,0-42.4,19-42.4,42.4s19,42.4,42.4,42.4s42.4-19,42.4-42.4l0,0
	C365,339.5,346.1,320.6,322.7,320.6z"/>
<path style="fill:#7437AA;" d="M637.6,399.5H409.9c-6,0-10.9-4.8-10.9-10.9s4.8-10.9,10.9-10.9l0,0h227.7c6,0,10.9,4.8,10.9,10.9
	S643.5,399.5,637.6,399.5L637.6,399.5z"/>
<path style="fill:#7437AA;" d="M481.7,353.5h-71.9c-6,0-10.9-4.8-10.9-10.9s4.8-10.9,10.9-10.9l0,0h71.9c6,0,10.9,4.8,10.9,10.9
	S487.7,353.5,481.7,353.5L481.7,353.5z"/>
<path style="fill:#202328;" d="M651,439.1H276.7c-8.8,0-16-7.2-16-16V302.8c0-8.8,7.2-16,16-16H651c8.8,0,16,7.2,16,16v120.2
	C667,431.9,659.8,439.1,651,439.1z M276.7,287.8c-8.3,0-15,6.7-15,15v120.2c0,8.3,6.7,15,15,15H651c8.3,0,15-6.7,15-15V302.8
	c0-8.3-6.7-15-15-15H276.7z"/>
<circle style="fill:#2F2E41;" cx="321.9" cy="366.5" r="18.1"/>
<ellipse transform="matrix(0.7071 -0.7071 0.7071 0.7071 -160.3868 318.1259)" style="fill:#2F2E41;" cx="303.8" cy="352.7" rx="7.5" ry="5.6"/>
<ellipse transform="matrix(0.3928 -0.9196 0.9196 0.3928 -117.2539 518.3536)" style="fill:#2F2E41;" cx="333.9" cy="348" rx="5.6" ry="7.5"/>
<circle style="fill:#FFB8B8;" cx="322.5" cy="370.7" r="15.3"/>
<path style="fill:#2F2E41;" d="M306.4,361.1c3.5,2.4,7.7,3.7,11.9,3.7c-1.6,1.1-3.3,1.7-5,2.1c5.6,1.3,11.5,1.3,17.2,0.1
	c1.3-0.2,2.5-0.6,3.6-1.3c1.2-0.7,1.9-1.7,2.2-3c0.4-2.1-1.3-4.1-3-5.4c-5.4-4.1-12.3-5.4-18.9-3.8c-2.1,0.4-4.1,1.6-5.6,3.2
	c-1.4,1.6-1.7,4.3-0.5,6L306.4,361.1z"/>
</svg>
