<?xml version="1.0" encoding="utf-8"?>
<!-- Generator: Adobe Illustrator 25.2.1, SVG Export Plug-In . SVG Version: 6.00 Build 0)  -->
<svg version="1.1" id="Layer_1" xmlns="http://www.w3.org/2000/svg" xmlns:xlink="http://www.w3.org/1999/xlink" x="0px" y="0px"
	 viewBox="0 0 640 480" style="enable-background:new 0 0 640 480;" xml:space="preserve">
<g>
	<path style="fill:#7437AA;" d="M375.9,196.4c-12-13.4-32.5-14.5-45.8-2.6c-5.7,5.1-9.1,11.8-10.3,18.8c-9.9-5.1-21.7-6.5-33.2-2.9
		c-23.1,7.1-36.1,31.4-29,54.3s31.5,35.6,54.6,28.4c19.4-6,31.6-24.1,30.9-43.2c10.3,2.9,21.8,0.6,30.4-7
		C386.8,230.3,387.9,209.8,375.9,196.4z M274.5,229.8c-0.4,0.6-3.3,4.5-5.2,9.3c-1.2,2.9-2.6,10.6-2.6,10.6
		c-0.2,0.7-0.9,1.1-1.5,0.8c-0.5-0.2-0.8-0.5-1-1c-0.1-0.3-0.1-0.6,0-0.9c0,0,0.2-5.1,2.2-10.1c2.5-6.4,5.8-9.6,5.8-9.6
		c0.7-0.6,1.4-0.9,2-0.4c0.2,0.1,0.3,0.3,0.4,0.5C274.7,229.3,274.7,229.6,274.5,229.8z M367.2,197.6c0,0.1-0.1,0.2-0.2,0.3
		c-0.2,0.2-0.4,0.2-0.7,0.1c-0.5-0.2-4.1-2-8.2-2.9c-2.5-0.5-8.7-0.6-8.7-0.6c-0.5,0-1-0.6-0.9-1.1c0-0.3,0.2-0.6,0.4-0.8
		c0.2-0.2,0.5-0.3,0.9-0.3c0,0,4-0.5,8.3,0.4c5.4,1.2,8.6,3.4,8.6,3.4C367.1,196.5,367.5,197,367.2,197.6z"/>
	<path style="opacity:0.5;fill:#7437AA;enable-background:new    ;" d="M372,269.2c-1.3-7.6-8.6-12.8-16.4-11.5s-13.1,8.6-11.8,16.2
		c1.3,7.6,8.6,12.8,16.4,11.5C368,284.1,373.3,276.8,372,269.2z M369.5,276.1c0,0-0.7,1.7-2.1,3.2c-1.7,1.8-3.2,2.5-3.2,2.5
		c-0.3,0.1-0.6,0.1-0.7-0.1c0-0.1-0.1-0.1-0.1-0.2s0-0.2,0.1-0.2c0.2-0.1,1.7-1.1,3-2.5c0.8-0.9,2.2-3.3,2.2-3.3
		c0.1-0.2,0.4-0.2,0.6-0.1c0.1,0.1,0.2,0.3,0.2,0.4C369.6,275.9,369.6,276,369.5,276.1z"/>
</g>
</svg>
