<?xml version="1.0" encoding="utf-8"?>
<!-- Generator: Adobe Illustrator 25.2.1, SVG Export Plug-In . SVG Version: 6.00 Build 0)  -->
<svg version="1.1" id="Layer_1" xmlns="http://www.w3.org/2000/svg" xmlns:xlink="http://www.w3.org/1999/xlink" x="0px" y="0px"
	 viewBox="0 0 640 480" style="enable-background:new 0 0 640 480;" xml:space="preserve">
<g>
	<g>
		<path style="fill:#7437AA;" d="M387,168.4c-12-13.4-32.5-14.5-45.8-2.6c-5.7,5.1-9.1,11.8-10.3,18.8c-9.9-5.1-21.7-6.5-33.2-2.9
			c-23.1,7.1-36.1,31.4-29,54.3c7.1,22.8,31.5,35.6,54.6,28.4c19.4-6,31.6-24.1,30.9-43.2c10.3,2.9,21.8,0.6,30.4-7
			C397.9,202.3,399,181.8,387,168.4z M285.6,201.9c-0.4,0.6-3.3,4.5-5.2,9.3c-1.2,2.9-2.6,10.6-2.6,10.6c-0.2,0.7-0.9,1.1-1.5,0.8
			c-0.5-0.2-0.8-0.5-1-1c-0.1-0.3-0.1-0.6,0-0.9c0,0,0.2-5.1,2.2-10.1c2.5-6.4,5.8-9.6,5.8-9.6c0.7-0.6,1.4-0.9,2-0.4
			c0.2,0.1,0.3,0.3,0.4,0.5S285.8,201.6,285.6,201.9z M378.3,169.6c0,0.1-0.1,0.2-0.2,0.3c-0.2,0.2-0.4,0.2-0.7,0.1
			c-0.5-0.2-4.1-2-8.2-2.9c-2.5-0.5-8.7-0.6-8.7-0.6c-0.5,0-1-0.6-0.9-1.1c0-0.3,0.2-0.6,0.4-0.8c0.2-0.2,0.5-0.3,0.9-0.3
			c0,0,4-0.5,8.3,0.4c5.4,1.2,8.6,3.4,8.6,3.4C378.2,168.5,378.6,169,378.3,169.6z"/>
		<path style="opacity:0.5;fill:#7437AA;enable-background:new    ;" d="M383.1,241.2c-1.3-7.6-8.6-12.8-16.4-11.5
			s-13.1,8.6-11.8,16.2c1.3,7.6,8.6,12.8,16.4,11.5S384.4,248.9,383.1,241.2z M380.6,248.1c0,0-0.7,1.7-2.1,3.2
			c-1.7,1.8-3.2,2.5-3.2,2.5c-0.3,0.1-0.6,0.1-0.7-0.1c0-0.1-0.1-0.1-0.1-0.2c0-0.1,0-0.2,0.1-0.2c0.2-0.1,1.7-1.1,3-2.5
			c0.8-0.9,2.2-3.3,2.2-3.3c0.1-0.2,0.4-0.2,0.6-0.1c0.1,0.1,0.2,0.3,0.2,0.4C380.7,247.9,380.7,248.1,380.6,248.1z"/>
	</g>
	<g>
		<path style="fill:#1F2328;" d="M220.7,310.5c-2,0-3.9-0.5-5.5-1.4s-2.9-2.2-3.8-3.9c-0.9-1.6-1.4-3.5-1.4-5.5v-17.8
			c0-0.6,0.2-1.1,0.6-1.4c0.4-0.4,0.9-0.5,1.4-0.5c0.6,0,1.1,0.2,1.4,0.5c0.4,0.4,0.6,0.9,0.6,1.4v10.5c0.9-1.1,2-2,3.3-2.6
			s2.7-1,4.2-1c1.9,0,3.6,0.5,5.1,1.4s2.7,2.2,3.6,3.9c0.9,1.6,1.3,3.5,1.3,5.5s-0.5,3.9-1.4,5.5s-2.2,2.9-3.8,3.9
			C224.6,310.1,222.7,310.5,220.7,310.5z M220.7,307c1.3,0,2.5-0.3,3.6-1c1-0.6,1.9-1.5,2.5-2.6s0.9-2.4,0.9-3.8s-0.3-2.6-0.9-3.8
			c-0.6-1.1-1.4-2-2.5-2.6c-1-0.6-2.2-1-3.6-1c-1.3,0-2.5,0.3-3.5,1c-1.1,0.6-1.9,1.5-2.5,2.6s-0.9,2.3-0.9,3.8
			c0,1.4,0.3,2.6,0.9,3.8c0.6,1.1,1.4,2,2.5,2.6C218.2,306.7,219.4,307,220.7,307z"/>
		<path style="fill:#1F2328;" d="M246.3,310.6c-1.8,0-3.4-0.4-4.8-1.1c-1.4-0.8-2.5-1.9-3.4-3.4c-0.8-1.5-1.2-3.3-1.2-5.5V291
			c0-0.6,0.2-1,0.6-1.4c0.4-0.4,0.9-0.6,1.4-0.6s1.1,0.2,1.4,0.6c0.4,0.4,0.6,0.9,0.6,1.4v9.6c0,1.5,0.3,2.7,0.8,3.6
			c0.6,1,1.3,1.6,2.2,2.1s2,0.7,3.2,0.7c1.1,0,2.1-0.2,3-0.7c0.9-0.4,1.6-1,2.1-1.8s0.8-1.6,0.8-2.5h2.5c0,1.6-0.4,3.1-1.2,4.4
			s-1.9,2.3-3.2,3.1C249.6,310.2,248.1,310.6,246.3,310.6z M255,310.4c-0.6,0-1.1-0.2-1.4-0.6c-0.4-0.4-0.6-0.9-0.6-1.4V291
			c0-0.6,0.2-1.1,0.6-1.4c0.4-0.4,0.9-0.5,1.4-0.5c0.6,0,1.1,0.2,1.4,0.5c0.4,0.4,0.5,0.9,0.5,1.4v17.4c0,0.6-0.2,1-0.5,1.4
			C256,310.2,255.6,310.4,255,310.4z"/>
		<path style="fill:#1F2328;" d="M274.7,310.5c-2,0-3.9-0.5-5.5-1.4s-2.9-2.2-3.8-3.9c-0.9-1.6-1.4-3.5-1.4-5.5v-17.8
			c0-0.6,0.2-1.1,0.6-1.4c0.4-0.4,0.9-0.5,1.4-0.5c0.6,0,1.1,0.2,1.4,0.5c0.4,0.4,0.5,0.9,0.5,1.4v10.5c0.9-1.1,2-2,3.3-2.6
			s2.7-1,4.2-1c1.9,0,3.6,0.5,5.1,1.4c1.5,1,2.7,2.2,3.6,3.9c0.9,1.6,1.3,3.5,1.3,5.5s-0.5,3.9-1.4,5.5s-2.2,2.9-3.8,3.9
			C278.6,310.1,276.8,310.5,274.7,310.5z M274.7,307c1.3,0,2.5-0.3,3.5-1c1-0.6,1.9-1.5,2.5-2.6s0.9-2.4,0.9-3.8s-0.3-2.6-0.9-3.8
			c-0.6-1.1-1.4-2-2.5-2.6c-1-0.6-2.2-1-3.5-1s-2.5,0.3-3.5,1c-1,0.6-1.9,1.5-2.5,2.6s-0.9,2.3-0.9,3.8c0,1.4,0.3,2.6,0.9,3.8
			s1.4,2,2.5,2.6C272.2,306.7,273.4,307,274.7,307z"/>
		<path style="fill:#1F2328;" d="M302.1,310.5c-2,0-3.9-0.5-5.5-1.4s-2.9-2.2-3.8-3.9c-0.9-1.6-1.4-3.5-1.4-5.5v-17.8
			c0-0.6,0.2-1.1,0.6-1.4c0.4-0.4,0.9-0.5,1.4-0.5c0.6,0,1.1,0.2,1.4,0.5c0.4,0.4,0.5,0.9,0.5,1.4v10.5c0.9-1.1,2-2,3.3-2.6
			s2.7-1,4.2-1c1.9,0,3.6,0.5,5.1,1.4c1.5,1,2.7,2.2,3.6,3.9c0.9,1.6,1.3,3.5,1.3,5.5s-0.5,3.9-1.4,5.5s-2.2,2.9-3.8,3.9
			C306,310.1,304.2,310.5,302.1,310.5z M302.1,307c1.3,0,2.5-0.3,3.5-1c1-0.6,1.9-1.5,2.5-2.6s0.9-2.4,0.9-3.8s-0.3-2.6-0.9-3.8
			c-0.6-1.1-1.4-2-2.5-2.6c-1-0.6-2.2-1-3.5-1s-2.5,0.3-3.5,1c-1,0.6-1.9,1.5-2.5,2.6s-0.9,2.3-0.9,3.8c0,1.4,0.3,2.6,0.9,3.8
			s1.4,2,2.5,2.6C299.7,306.7,300.8,307,302.1,307z"/>
		<path style="fill:#1F2328;" d="M323.9,310.4c-1.1,0-2.2-0.3-3-0.9c-0.9-0.6-1.6-1.5-2.1-2.6s-0.7-2.3-0.7-3.7v-21.3
			c0-0.6,0.2-1,0.5-1.4c0.4-0.4,0.8-0.5,1.4-0.5s1,0.2,1.4,0.5c0.4,0.4,0.5,0.8,0.5,1.4v21.3c0,1,0.2,1.8,0.5,2.4
			c0.4,0.6,0.8,0.9,1.4,0.9h1c0.5,0,0.9,0.2,1.3,0.5c0.3,0.4,0.5,0.8,0.5,1.4s-0.2,1-0.7,1.4s-1.1,0.5-1.9,0.5L323.9,310.4
			L323.9,310.4z"/>
		<path style="fill:#1F2328;" d="M339.4,310.5c-2.2,0-4.1-0.5-5.8-1.4c-1.7-0.9-3-2.2-3.9-3.8c-1-1.6-1.4-3.5-1.4-5.6s0.5-4,1.4-5.6
			s2.1-2.9,3.7-3.8s3.4-1.4,5.5-1.4c2,0,3.8,0.5,5.2,1.4c1.5,0.9,2.6,2.1,3.3,3.7c0.8,1.6,1.1,3.4,1.1,5.4c0,0.5-0.2,0.9-0.5,1.2
			c-0.3,0.3-0.8,0.5-1.3,0.5H331V298h15.6l-1.6,1.1c0-1.3-0.3-2.5-0.8-3.5s-1.2-1.8-2.1-2.4s-2-0.9-3.3-0.9c-1.5,0-2.8,0.3-3.8,1
			c-1,0.6-1.9,1.5-2.4,2.7s-0.8,2.4-0.8,3.8s0.3,2.7,1,3.8c0.6,1.1,1.5,2,2.7,2.6s2.5,1,3.9,1c0.8,0,1.6-0.1,2.5-0.5
			c0.8-0.3,1.5-0.6,2-1c0.4-0.3,0.8-0.4,1.3-0.5c0.5,0,0.9,0.1,1.2,0.4c0.4,0.4,0.7,0.8,0.7,1.3s-0.2,0.9-0.6,1.2
			c-0.9,0.7-2,1.3-3.3,1.7C341.9,310.3,340.6,310.5,339.4,310.5z"/>
		<path style="fill:#1F2328;" d="M374.7,310.5c-2.1,0-3.9-0.5-5.6-1.4c-1.6-1-2.9-2.2-3.8-3.9c-0.9-1.6-1.4-3.5-1.4-5.5
			c0-2.1,0.5-4,1.4-5.6s2.2-2.9,3.8-3.8c1.6-0.9,3.4-1.4,5.5-1.4c1.5,0,2.9,0.3,4.2,0.9s2.4,1.5,3.4,2.6c0.4,0.4,0.5,0.9,0.4,1.3
			s-0.4,0.8-0.9,1.2c-0.4,0.3-0.8,0.4-1.2,0.2c-0.4-0.1-0.9-0.3-1.2-0.7c-1.3-1.4-2.9-2-4.8-2c-1.3,0-2.5,0.3-3.5,0.9
			s-1.8,1.5-2.4,2.6s-0.9,2.4-0.9,3.9c0,1.4,0.3,2.6,0.9,3.8c0.6,1.1,1.4,2,2.4,2.6s2.2,1,3.6,1c0.9,0,1.7-0.1,2.4-0.3
			s1.3-0.6,1.9-1c0.4-0.3,0.9-0.5,1.3-0.6s0.8,0.1,1.2,0.4c0.4,0.4,0.7,0.8,0.7,1.2c0,0.5-0.1,0.9-0.5,1.2
			C379.9,309.7,377.5,310.5,374.7,310.5z"/>
		<path style="fill:#1F2328;" d="M390.5,302.6c-0.6,0-1-0.2-1.4-0.6s-0.6-0.9-0.6-1.4v-18.7c0-0.6,0.2-1.1,0.6-1.4
			c0.4-0.4,0.9-0.5,1.4-0.5c0.6,0,1.1,0.2,1.4,0.5c0.4,0.4,0.5,0.9,0.5,1.4v18.7c0,0.6-0.2,1-0.5,1.4S391.1,302.6,390.5,302.6z
			 M390.5,310.4c-0.6,0-1-0.2-1.4-0.6s-0.6-0.9-0.6-1.4V291c0-0.6,0.2-1.1,0.6-1.4c0.4-0.4,0.9-0.5,1.4-0.5c0.6,0,1.1,0.2,1.4,0.5
			c0.4,0.4,0.5,0.9,0.5,1.4v17.4c0,0.6-0.2,1-0.5,1.4C391.6,310.2,391.1,310.4,390.5,310.4z M406.5,310.4c-0.6,0-1-0.2-1.4-0.6
			s-0.6-0.9-0.6-1.4v-9.6c0-1.5-0.3-2.7-0.8-3.6s-1.3-1.6-2.2-2.1s-2-0.7-3.2-0.7c-1.1,0-2.1,0.2-3,0.7c-0.9,0.4-1.6,1-2.1,1.8
			c-0.5,0.7-0.8,1.6-0.8,2.6H390c0-1.6,0.4-3.1,1.2-4.4s1.9-2.3,3.3-3.1s2.9-1.1,4.6-1.1c1.8,0,3.4,0.4,4.8,1.1s2.5,1.9,3.4,3.4
			c0.8,1.5,1.2,3.3,1.2,5.5v9.6c0,0.6-0.2,1-0.6,1.4S407.1,310.4,406.5,310.4z"/>
		<path style="fill:#1F2328;" d="M424,310.5c-1.9,0-3.6-0.5-5.1-1.4c-1.5-1-2.7-2.2-3.6-3.9c-0.9-1.6-1.3-3.5-1.3-5.5
			s0.5-3.9,1.4-5.5s2.2-2.9,3.9-3.9c1.6-1,3.5-1.4,5.5-1.4s3.9,0.5,5.5,1.4s2.9,2.2,3.8,3.9c1,1.6,1.4,3.5,1.4,5.5H434
			c0,2.1-0.4,3.9-1.3,5.5s-2.1,2.9-3.6,3.9S426,310.5,424,310.5z M424.8,307c1.3,0,2.5-0.3,3.5-1c1-0.6,1.9-1.5,2.5-2.6
			s0.9-2.4,0.9-3.7c0-1.4-0.3-2.7-0.9-3.8s-1.4-2-2.5-2.6c-1-0.6-2.2-1-3.5-1s-2.5,0.3-3.5,1c-1,0.6-1.9,1.5-2.5,2.6
			s-0.9,2.4-0.9,3.8s0.3,2.6,0.9,3.7s1.4,2,2.5,2.6C422.4,306.7,423.5,307,424.8,307z M433.6,310.4c-0.6,0-1-0.2-1.4-0.6
			s-0.6-0.9-0.6-1.4v-6l0.7-4.1l3.2,1.4v8.7c0,0.6-0.2,1-0.6,1.4C434.6,310.2,434.1,310.4,433.6,310.4z"/>
		<path style="fill:#1F2328;" d="M440.6,293.2c-0.5,0-1-0.2-1.3-0.5s-0.5-0.7-0.5-1.2s0.2-0.9,0.5-1.2s0.8-0.5,1.3-0.5h9
			c0.5,0,1,0.2,1.3,0.5s0.5,0.7,0.5,1.2s-0.2,0.9-0.5,1.2c-0.3,0.3-0.8,0.5-1.3,0.5H440.6z M449.3,310.4c-1.3,0-2.5-0.3-3.5-1
			s-1.9-1.6-2.5-2.7s-0.9-2.4-0.9-3.9v-18.6c0-0.6,0.2-1,0.5-1.4c0.4-0.4,0.8-0.5,1.4-0.5s1,0.2,1.4,0.5c0.4,0.4,0.5,0.8,0.5,1.4
			v18.6c0,1,0.3,1.9,0.9,2.6s1.3,1,2.1,1h1.3c0.5,0,0.9,0.2,1.2,0.5c0.3,0.4,0.5,0.8,0.5,1.4s-0.2,1-0.6,1.4s-1,0.5-1.7,0.5
			L449.3,310.4L449.3,310.4z"/>
	</g>
</g>
</svg>
